# xmcd
#
# Track frame offsets:
#	182
#	47460
#	72850
#	111480
#	136522
#	179362
#	200667
#
# Disc length: 2953 seconds
#
# Revision: 1
# Processed by: cddbd v1.4PL0 Copyright (c) Steve Scherf et al.
# Submitted via: audiograbber 1.81.03
#
DISCID=5f0b8707
DTITLE=Mighty Joe Young - Blues with a Touch of Soul
DYEAR=1992
DGENRE=Blues
TTITLE0=Teasin' the Blues
TTITLE1=Wisefool Express
TTITLE2=Sweet Home Chicago
TTITLE3=Take Money
TTITLE4=Five Long Years
TTITLE5=Take a Fool Advice
TTITLE6=Need a Friend
EXTD=
EXTT0=
EXTT1=
EXTT2=
EXTT3=
EXTT4=
EXTT5=
EXTT6=
PLAYORDER=
